<mxfile host="app.diagrams.net" modified="2024-07-17T05:03:07.338Z" agent="Mozilla/5.0 (Windows NT 10.0; Win64; x64) AppleWebKit/537.36 (KHTML, like Gecko) Chrome/126.0.0.0 Safari/537.36" etag="49L0wqUejnwT7Kt8MSW3" version="24.6.5" type="github">
  <diagram id="C5RBs43oDa-KdzZeNtuy" name="Page-1">
    <mxGraphModel dx="3328" dy="738" grid="1" gridSize="10" guides="1" tooltips="1" connect="1" arrows="1" fold="1" page="1" pageScale="1" pageWidth="827" pageHeight="1169" math="0" shadow="0">
      <root>
        <mxCell id="WIyWlLk6GJQsqaUBKTNV-0" />
        <mxCell id="WIyWlLk6GJQsqaUBKTNV-1" parent="WIyWlLk6GJQsqaUBKTNV-0" />
        <mxCell id="pU9Nuj2Ota8fJku8dNai-0" value="전자 결재&lt;br&gt;메인 페이지" style="rounded=1;whiteSpace=wrap;html=1;" parent="WIyWlLk6GJQsqaUBKTNV-1" vertex="1">
          <mxGeometry x="354" y="40" width="120" height="60" as="geometry" />
        </mxCell>
        <mxCell id="pU9Nuj2Ota8fJku8dNai-2" value="" style="endArrow=classic;html=1;rounded=0;exitX=0.5;exitY=1;exitDx=0;exitDy=0;entryX=0.5;entryY=0;entryDx=0;entryDy=0;" parent="WIyWlLk6GJQsqaUBKTNV-1" source="pU9Nuj2Ota8fJku8dNai-0" target="pU9Nuj2Ota8fJku8dNai-7" edge="1">
          <mxGeometry width="50" height="50" relative="1" as="geometry">
            <mxPoint x="434" y="210" as="sourcePoint" />
            <mxPoint x="414" y="130" as="targetPoint" />
          </mxGeometry>
        </mxCell>
        <mxCell id="pU9Nuj2Ota8fJku8dNai-3" value="화면 넓게" style="rounded=1;whiteSpace=wrap;html=1;" parent="WIyWlLk6GJQsqaUBKTNV-1" vertex="1">
          <mxGeometry x="-50" y="1140" width="120" height="60" as="geometry" />
        </mxCell>
        <mxCell id="pU9Nuj2Ota8fJku8dNai-4" value="화면 넓게" style="rounded=1;whiteSpace=wrap;html=1;" parent="WIyWlLk6GJQsqaUBKTNV-1" vertex="1">
          <mxGeometry x="770" y="1140" width="120" height="60" as="geometry" />
        </mxCell>
        <mxCell id="pU9Nuj2Ota8fJku8dNai-7" value="양식 작성" style="rounded=0;whiteSpace=wrap;html=1;" parent="WIyWlLk6GJQsqaUBKTNV-1" vertex="1">
          <mxGeometry x="354" y="150" width="120" height="60" as="geometry" />
        </mxCell>
        <mxCell id="pU9Nuj2Ota8fJku8dNai-10" value="취소 안하고&lt;br&gt;계속 작성할건가?" style="rhombus;whiteSpace=wrap;html=1;" parent="WIyWlLk6GJQsqaUBKTNV-1" vertex="1">
          <mxGeometry x="346" y="240" width="136" height="60" as="geometry" />
        </mxCell>
        <mxCell id="pU9Nuj2Ota8fJku8dNai-11" value="" style="endArrow=classic;html=1;rounded=0;exitX=0.5;exitY=1;exitDx=0;exitDy=0;entryX=0.5;entryY=0;entryDx=0;entryDy=0;" parent="WIyWlLk6GJQsqaUBKTNV-1" source="pU9Nuj2Ota8fJku8dNai-7" target="pU9Nuj2Ota8fJku8dNai-10" edge="1">
          <mxGeometry width="50" height="50" relative="1" as="geometry">
            <mxPoint x="50" y="240" as="sourcePoint" />
            <mxPoint x="100" y="190" as="targetPoint" />
          </mxGeometry>
        </mxCell>
        <mxCell id="pU9Nuj2Ota8fJku8dNai-12" value="" style="endArrow=none;html=1;rounded=0;exitX=1;exitY=0.5;exitDx=0;exitDy=0;" parent="WIyWlLk6GJQsqaUBKTNV-1" source="pU9Nuj2Ota8fJku8dNai-10" edge="1">
          <mxGeometry width="50" height="50" relative="1" as="geometry">
            <mxPoint x="50" y="240" as="sourcePoint" />
            <mxPoint x="520" y="270" as="targetPoint" />
          </mxGeometry>
        </mxCell>
        <mxCell id="pU9Nuj2Ota8fJku8dNai-14" value="" style="endArrow=classic;html=1;rounded=0;entryX=1;entryY=0.5;entryDx=0;entryDy=0;" parent="WIyWlLk6GJQsqaUBKTNV-1" target="pU9Nuj2Ota8fJku8dNai-0" edge="1">
          <mxGeometry width="50" height="50" relative="1" as="geometry">
            <mxPoint x="520" y="70" as="sourcePoint" />
            <mxPoint x="100" y="170" as="targetPoint" />
          </mxGeometry>
        </mxCell>
        <mxCell id="pU9Nuj2Ota8fJku8dNai-15" value="No" style="text;strokeColor=none;fillColor=none;align=left;verticalAlign=middle;spacingLeft=4;spacingRight=4;overflow=hidden;points=[[0,0.5],[1,0.5]];portConstraint=eastwest;rotatable=0;whiteSpace=wrap;html=1;" parent="WIyWlLk6GJQsqaUBKTNV-1" vertex="1">
          <mxGeometry x="482" y="250" width="40" height="20" as="geometry" />
        </mxCell>
        <mxCell id="pU9Nuj2Ota8fJku8dNai-17" value="" style="endArrow=none;dashed=1;html=1;dashPattern=1 3;strokeWidth=2;rounded=0;" parent="WIyWlLk6GJQsqaUBKTNV-1" edge="1">
          <mxGeometry width="50" height="50" relative="1" as="geometry">
            <mxPoint x="520" y="190" as="sourcePoint" />
            <mxPoint x="520" y="160" as="targetPoint" />
          </mxGeometry>
        </mxCell>
        <mxCell id="pU9Nuj2Ota8fJku8dNai-18" value="" style="endArrow=none;html=1;rounded=0;" parent="WIyWlLk6GJQsqaUBKTNV-1" edge="1">
          <mxGeometry width="50" height="50" relative="1" as="geometry">
            <mxPoint x="520" y="270" as="sourcePoint" />
            <mxPoint x="520" y="190" as="targetPoint" />
          </mxGeometry>
        </mxCell>
        <mxCell id="pU9Nuj2Ota8fJku8dNai-19" value="" style="endArrow=none;html=1;rounded=0;" parent="WIyWlLk6GJQsqaUBKTNV-1" edge="1">
          <mxGeometry width="50" height="50" relative="1" as="geometry">
            <mxPoint x="520" y="70" as="sourcePoint" />
            <mxPoint x="520" y="160" as="targetPoint" />
          </mxGeometry>
        </mxCell>
        <mxCell id="pU9Nuj2Ota8fJku8dNai-20" value="결재 양식 추가" style="rounded=0;whiteSpace=wrap;html=1;" parent="WIyWlLk6GJQsqaUBKTNV-1" vertex="1">
          <mxGeometry x="354" y="340" width="120" height="60" as="geometry" />
        </mxCell>
        <mxCell id="pU9Nuj2Ota8fJku8dNai-21" value="결재 양식 선택" style="rounded=0;whiteSpace=wrap;html=1;" parent="WIyWlLk6GJQsqaUBKTNV-1" vertex="1">
          <mxGeometry x="-1080" y="410" width="120" height="60" as="geometry" />
        </mxCell>
        <mxCell id="pU9Nuj2Ota8fJku8dNai-22" value="결재 양식 삭제" style="rounded=0;whiteSpace=wrap;html=1;" parent="WIyWlLk6GJQsqaUBKTNV-1" vertex="1">
          <mxGeometry x="538" y="340" width="120" height="60" as="geometry" />
        </mxCell>
        <mxCell id="pU9Nuj2Ota8fJku8dNai-26" value="" style="endArrow=classic;html=1;rounded=0;entryX=0.5;entryY=0;entryDx=0;entryDy=0;" parent="WIyWlLk6GJQsqaUBKTNV-1" edge="1">
          <mxGeometry width="50" height="50" relative="1" as="geometry">
            <mxPoint x="597.52" y="320" as="sourcePoint" />
            <mxPoint x="597.52" y="340" as="targetPoint" />
          </mxGeometry>
        </mxCell>
        <mxCell id="pU9Nuj2Ota8fJku8dNai-27" value="Yes" style="text;strokeColor=none;fillColor=none;align=left;verticalAlign=middle;spacingLeft=4;spacingRight=4;overflow=hidden;points=[[0,0.5],[1,0.5]];portConstraint=eastwest;rotatable=0;whiteSpace=wrap;html=1;" parent="WIyWlLk6GJQsqaUBKTNV-1" vertex="1">
          <mxGeometry x="414" y="300" width="40" height="20" as="geometry" />
        </mxCell>
        <mxCell id="pU9Nuj2Ota8fJku8dNai-28" value="결재 신청 처리" style="rounded=0;whiteSpace=wrap;html=1;" parent="WIyWlLk6GJQsqaUBKTNV-1" vertex="1">
          <mxGeometry x="-1080" y="590" width="120" height="60" as="geometry" />
        </mxCell>
        <mxCell id="pU9Nuj2Ota8fJku8dNai-30" value="결재 신청 완료" style="rounded=0;whiteSpace=wrap;html=1;" parent="WIyWlLk6GJQsqaUBKTNV-1" vertex="1">
          <mxGeometry x="-1080" y="850" width="120" height="60" as="geometry" />
        </mxCell>
        <mxCell id="pU9Nuj2Ota8fJku8dNai-32" value="결재 목록&lt;br&gt;페이지로 전환" style="rounded=1;whiteSpace=wrap;html=1;" parent="WIyWlLk6GJQsqaUBKTNV-1" vertex="1">
          <mxGeometry x="-1080" y="930" width="120" height="60" as="geometry" />
        </mxCell>
        <mxCell id="pU9Nuj2Ota8fJku8dNai-33" value="" style="endArrow=classic;html=1;rounded=0;exitX=0.5;exitY=1;exitDx=0;exitDy=0;entryX=0.5;entryY=0;entryDx=0;entryDy=0;" parent="WIyWlLk6GJQsqaUBKTNV-1" source="pU9Nuj2Ota8fJku8dNai-30" target="pU9Nuj2Ota8fJku8dNai-32" edge="1">
          <mxGeometry width="50" height="50" relative="1" as="geometry">
            <mxPoint x="-1020" y="930" as="sourcePoint" />
            <mxPoint x="-1020" y="950" as="targetPoint" />
          </mxGeometry>
        </mxCell>
        <mxCell id="pU9Nuj2Ota8fJku8dNai-34" value="정말 삭제할겁니까?" style="rhombus;whiteSpace=wrap;html=1;" parent="WIyWlLk6GJQsqaUBKTNV-1" vertex="1">
          <mxGeometry x="528" y="420" width="140" height="60" as="geometry" />
        </mxCell>
        <mxCell id="pU9Nuj2Ota8fJku8dNai-35" value="" style="endArrow=classic;html=1;rounded=0;exitX=0.5;exitY=1;exitDx=0;exitDy=0;entryX=0.5;entryY=0;entryDx=0;entryDy=0;" parent="WIyWlLk6GJQsqaUBKTNV-1" source="pU9Nuj2Ota8fJku8dNai-22" target="pU9Nuj2Ota8fJku8dNai-34" edge="1">
          <mxGeometry width="50" height="50" relative="1" as="geometry">
            <mxPoint x="98" y="430" as="sourcePoint" />
            <mxPoint x="148" y="380" as="targetPoint" />
          </mxGeometry>
        </mxCell>
        <mxCell id="pU9Nuj2Ota8fJku8dNai-36" value="결재 양식&lt;br&gt;삭제 완료" style="rounded=0;whiteSpace=wrap;html=1;" parent="WIyWlLk6GJQsqaUBKTNV-1" vertex="1">
          <mxGeometry x="538" y="510" width="120" height="60" as="geometry" />
        </mxCell>
        <mxCell id="pU9Nuj2Ota8fJku8dNai-37" value="" style="endArrow=classic;html=1;rounded=0;exitX=0.5;exitY=1;exitDx=0;exitDy=0;entryX=0.5;entryY=0;entryDx=0;entryDy=0;" parent="WIyWlLk6GJQsqaUBKTNV-1" target="pU9Nuj2Ota8fJku8dNai-36" edge="1">
          <mxGeometry width="50" height="50" relative="1" as="geometry">
            <mxPoint x="598" y="480" as="sourcePoint" />
            <mxPoint x="598" y="500" as="targetPoint" />
          </mxGeometry>
        </mxCell>
        <mxCell id="pU9Nuj2Ota8fJku8dNai-40" value="&lt;div&gt;결재 정보 입력&lt;/div&gt;" style="shape=parallelogram;perimeter=parallelogramPerimeter;whiteSpace=wrap;html=1;fixedSize=1;" parent="WIyWlLk6GJQsqaUBKTNV-1" vertex="1">
          <mxGeometry x="-1080" y="500" width="120" height="60" as="geometry" />
        </mxCell>
        <mxCell id="pU9Nuj2Ota8fJku8dNai-41" value="결재&lt;br&gt;게시판 DB" style="shape=cylinder3;whiteSpace=wrap;html=1;boundedLbl=1;backgroundOutline=1;size=15;" parent="WIyWlLk6GJQsqaUBKTNV-1" vertex="1">
          <mxGeometry x="-1055" y="760" width="70" height="70" as="geometry" />
        </mxCell>
        <mxCell id="pU9Nuj2Ota8fJku8dNai-44" value="" style="endArrow=classic;html=1;rounded=0;exitX=0.5;exitY=1;exitDx=0;exitDy=0;entryX=0.5;entryY=0;entryDx=0;entryDy=0;" parent="WIyWlLk6GJQsqaUBKTNV-1" target="pU9Nuj2Ota8fJku8dNai-28" edge="1" source="pU9Nuj2Ota8fJku8dNai-40">
          <mxGeometry width="50" height="50" relative="1" as="geometry">
            <mxPoint x="-1018" y="560" as="sourcePoint" />
            <mxPoint x="-1018" y="580" as="targetPoint" />
          </mxGeometry>
        </mxCell>
        <mxCell id="pU9Nuj2Ota8fJku8dNai-45" value="정보를&lt;br&gt;빠짐없이,올바르게&lt;br&gt;적었나?" style="rhombus;whiteSpace=wrap;html=1;" parent="WIyWlLk6GJQsqaUBKTNV-1" vertex="1">
          <mxGeometry x="-1092" y="670" width="144" height="70" as="geometry" />
        </mxCell>
        <mxCell id="pU9Nuj2Ota8fJku8dNai-49" value="" style="endArrow=classic;html=1;rounded=0;entryX=0.5;entryY=0;entryDx=0;entryDy=0;" parent="WIyWlLk6GJQsqaUBKTNV-1" edge="1" target="pU9Nuj2Ota8fJku8dNai-45">
          <mxGeometry width="50" height="50" relative="1" as="geometry">
            <mxPoint x="-1020" y="650" as="sourcePoint" />
            <mxPoint x="-1018" y="670" as="targetPoint" />
          </mxGeometry>
        </mxCell>
        <mxCell id="pU9Nuj2Ota8fJku8dNai-50" value="" style="endArrow=classic;html=1;rounded=0;exitX=0.5;exitY=1;exitDx=0;exitDy=0;entryX=0.5;entryY=0;entryDx=0;entryDy=0;" parent="WIyWlLk6GJQsqaUBKTNV-1" edge="1" target="pU9Nuj2Ota8fJku8dNai-40" source="pU9Nuj2Ota8fJku8dNai-21">
          <mxGeometry width="50" height="50" relative="1" as="geometry">
            <mxPoint x="-1018" y="480" as="sourcePoint" />
            <mxPoint x="-1018" y="500" as="targetPoint" />
          </mxGeometry>
        </mxCell>
        <mxCell id="pU9Nuj2Ota8fJku8dNai-51" value="" style="endArrow=classic;html=1;rounded=0;exitX=0.5;exitY=1;exitDx=0;exitDy=0;entryX=0.5;entryY=0;entryDx=0;entryDy=0;entryPerimeter=0;" parent="WIyWlLk6GJQsqaUBKTNV-1" source="pU9Nuj2Ota8fJku8dNai-45" target="pU9Nuj2Ota8fJku8dNai-41" edge="1">
          <mxGeometry width="50" height="50" relative="1" as="geometry">
            <mxPoint x="-1378" y="720" as="sourcePoint" />
            <mxPoint x="-1328" y="670" as="targetPoint" />
          </mxGeometry>
        </mxCell>
        <mxCell id="pU9Nuj2Ota8fJku8dNai-52" value="Yes" style="text;strokeColor=none;fillColor=none;align=left;verticalAlign=middle;spacingLeft=4;spacingRight=4;overflow=hidden;points=[[0,0.5],[1,0.5]];portConstraint=eastwest;rotatable=0;whiteSpace=wrap;html=1;" parent="WIyWlLk6GJQsqaUBKTNV-1" vertex="1">
          <mxGeometry x="-1014" y="740" width="40" height="20" as="geometry" />
        </mxCell>
        <mxCell id="pU9Nuj2Ota8fJku8dNai-53" value="" style="endArrow=classic;html=1;rounded=0;exitX=0.5;exitY=1;exitDx=0;exitDy=0;exitPerimeter=0;entryX=0.5;entryY=0;entryDx=0;entryDy=0;" parent="WIyWlLk6GJQsqaUBKTNV-1" target="pU9Nuj2Ota8fJku8dNai-30" edge="1">
          <mxGeometry width="50" height="50" relative="1" as="geometry">
            <mxPoint x="-1020" y="830" as="sourcePoint" />
            <mxPoint x="-1330" y="680" as="targetPoint" />
          </mxGeometry>
        </mxCell>
        <mxCell id="pU9Nuj2Ota8fJku8dNai-58" value="" style="endArrow=none;html=1;rounded=0;" parent="WIyWlLk6GJQsqaUBKTNV-1" edge="1">
          <mxGeometry width="50" height="50" relative="1" as="geometry">
            <mxPoint x="-928" y="800" as="sourcePoint" />
            <mxPoint x="-928" y="530" as="targetPoint" />
          </mxGeometry>
        </mxCell>
        <mxCell id="pU9Nuj2Ota8fJku8dNai-59" value="" style="endArrow=classic;html=1;rounded=0;entryX=1;entryY=0.5;entryDx=0;entryDy=0;" parent="WIyWlLk6GJQsqaUBKTNV-1" target="pU9Nuj2Ota8fJku8dNai-40" edge="1">
          <mxGeometry width="50" height="50" relative="1" as="geometry">
            <mxPoint x="-928" y="530" as="sourcePoint" />
            <mxPoint x="-1138" y="640" as="targetPoint" />
          </mxGeometry>
        </mxCell>
        <mxCell id="pU9Nuj2Ota8fJku8dNai-63" value="결재 양식&lt;br&gt;추가 완료" style="rounded=0;whiteSpace=wrap;html=1;" parent="WIyWlLk6GJQsqaUBKTNV-1" vertex="1">
          <mxGeometry x="354" y="420" width="120" height="60" as="geometry" />
        </mxCell>
        <mxCell id="pU9Nuj2Ota8fJku8dNai-64" value="Yes" style="text;strokeColor=none;fillColor=none;align=left;verticalAlign=middle;spacingLeft=4;spacingRight=4;overflow=hidden;points=[[0,0.5],[1,0.5]];portConstraint=eastwest;rotatable=0;whiteSpace=wrap;html=1;" parent="WIyWlLk6GJQsqaUBKTNV-1" vertex="1">
          <mxGeometry x="600" y="480" width="40" height="20" as="geometry" />
        </mxCell>
        <mxCell id="pU9Nuj2Ota8fJku8dNai-66" value="" style="endArrow=classic;html=1;rounded=0;entryX=0.5;entryY=0;entryDx=0;entryDy=0;" parent="WIyWlLk6GJQsqaUBKTNV-1" edge="1">
          <mxGeometry width="50" height="50" relative="1" as="geometry">
            <mxPoint x="414" y="320" as="sourcePoint" />
            <mxPoint x="414" y="340" as="targetPoint" />
          </mxGeometry>
        </mxCell>
        <mxCell id="pU9Nuj2Ota8fJku8dNai-67" value="" style="endArrow=classic;html=1;rounded=0;exitX=0.5;exitY=1;exitDx=0;exitDy=0;entryX=0.5;entryY=0;entryDx=0;entryDy=0;" parent="WIyWlLk6GJQsqaUBKTNV-1" source="pU9Nuj2Ota8fJku8dNai-20" target="pU9Nuj2Ota8fJku8dNai-63" edge="1">
          <mxGeometry width="50" height="50" relative="1" as="geometry">
            <mxPoint x="444" y="650" as="sourcePoint" />
            <mxPoint x="494" y="600" as="targetPoint" />
          </mxGeometry>
        </mxCell>
        <mxCell id="pU9Nuj2Ota8fJku8dNai-69" value="양식 작성&lt;br&gt;페이지로 전환" style="rounded=1;whiteSpace=wrap;html=1;" parent="WIyWlLk6GJQsqaUBKTNV-1" vertex="1">
          <mxGeometry x="538" y="590" width="120" height="60" as="geometry" />
        </mxCell>
        <mxCell id="pU9Nuj2Ota8fJku8dNai-70" value="" style="endArrow=classic;html=1;rounded=0;exitX=0.5;exitY=1;exitDx=0;exitDy=0;entryX=0.5;entryY=0;entryDx=0;entryDy=0;" parent="WIyWlLk6GJQsqaUBKTNV-1" target="pU9Nuj2Ota8fJku8dNai-69" edge="1">
          <mxGeometry width="50" height="50" relative="1" as="geometry">
            <mxPoint x="598" y="570" as="sourcePoint" />
            <mxPoint x="598" y="610" as="targetPoint" />
          </mxGeometry>
        </mxCell>
        <mxCell id="pU9Nuj2Ota8fJku8dNai-72" value="양식 작성&lt;br&gt;페이지로 전환" style="rounded=1;whiteSpace=wrap;html=1;" parent="WIyWlLk6GJQsqaUBKTNV-1" vertex="1">
          <mxGeometry x="354" y="500" width="120" height="60" as="geometry" />
        </mxCell>
        <mxCell id="pU9Nuj2Ota8fJku8dNai-73" value="" style="endArrow=classic;html=1;rounded=0;exitX=0.5;exitY=1;exitDx=0;exitDy=0;entryX=0.5;entryY=0;entryDx=0;entryDy=0;" parent="WIyWlLk6GJQsqaUBKTNV-1" target="pU9Nuj2Ota8fJku8dNai-72" edge="1">
          <mxGeometry width="50" height="50" relative="1" as="geometry">
            <mxPoint x="414" y="480" as="sourcePoint" />
            <mxPoint x="414" y="520" as="targetPoint" />
          </mxGeometry>
        </mxCell>
        <mxCell id="pU9Nuj2Ota8fJku8dNai-75" value="임시 저장" style="rounded=0;whiteSpace=wrap;html=1;" parent="WIyWlLk6GJQsqaUBKTNV-1" vertex="1">
          <mxGeometry x="-1240" y="590" width="120" height="60" as="geometry" />
        </mxCell>
        <mxCell id="pU9Nuj2Ota8fJku8dNai-78" value="" style="endArrow=none;html=1;rounded=0;entryX=0.998;entryY=0.572;entryDx=0;entryDy=0;entryPerimeter=0;" parent="WIyWlLk6GJQsqaUBKTNV-1" target="pU9Nuj2Ota8fJku8dNai-41" edge="1">
          <mxGeometry width="50" height="50" relative="1" as="geometry">
            <mxPoint x="-930" y="800" as="sourcePoint" />
            <mxPoint x="-980" y="800" as="targetPoint" />
          </mxGeometry>
        </mxCell>
        <mxCell id="pU9Nuj2Ota8fJku8dNai-79" value="No" style="text;strokeColor=none;fillColor=none;align=left;verticalAlign=middle;spacingLeft=4;spacingRight=4;overflow=hidden;points=[[0,0.5],[1,0.5]];portConstraint=eastwest;rotatable=0;whiteSpace=wrap;html=1;" parent="WIyWlLk6GJQsqaUBKTNV-1" vertex="1">
          <mxGeometry x="-976" y="780" width="40" height="20" as="geometry" />
        </mxCell>
        <mxCell id="pU9Nuj2Ota8fJku8dNai-80" value="임시저장 DB" style="shape=cylinder3;whiteSpace=wrap;html=1;boundedLbl=1;backgroundOutline=1;size=15;" parent="WIyWlLk6GJQsqaUBKTNV-1" vertex="1">
          <mxGeometry x="-1215" y="670" width="70" height="70" as="geometry" />
        </mxCell>
        <mxCell id="pU9Nuj2Ota8fJku8dNai-81" value="" style="endArrow=classic;html=1;rounded=0;exitX=0.5;exitY=1;exitDx=0;exitDy=0;entryX=0.5;entryY=0;entryDx=0;entryDy=0;" parent="WIyWlLk6GJQsqaUBKTNV-1" edge="1">
          <mxGeometry width="50" height="50" relative="1" as="geometry">
            <mxPoint x="-1180" y="650" as="sourcePoint" />
            <mxPoint x="-1180" y="670" as="targetPoint" />
          </mxGeometry>
        </mxCell>
        <mxCell id="pU9Nuj2Ota8fJku8dNai-83" value="임시 저장 완료" style="rounded=0;whiteSpace=wrap;html=1;" parent="WIyWlLk6GJQsqaUBKTNV-1" vertex="1">
          <mxGeometry x="-1240" y="760" width="120" height="60" as="geometry" />
        </mxCell>
        <mxCell id="pU9Nuj2Ota8fJku8dNai-84" value="" style="endArrow=classic;html=1;rounded=0;exitX=0.5;exitY=1;exitDx=0;exitDy=0;exitPerimeter=0;entryX=0.5;entryY=0;entryDx=0;entryDy=0;" parent="WIyWlLk6GJQsqaUBKTNV-1" target="pU9Nuj2Ota8fJku8dNai-83" edge="1">
          <mxGeometry width="50" height="50" relative="1" as="geometry">
            <mxPoint x="-1180" y="740" as="sourcePoint" />
            <mxPoint x="-1490" y="590" as="targetPoint" />
          </mxGeometry>
        </mxCell>
        <mxCell id="pU9Nuj2Ota8fJku8dNai-85" value="" style="endArrow=none;html=1;rounded=0;entryX=1;entryY=0.5;entryDx=0;entryDy=0;" parent="WIyWlLk6GJQsqaUBKTNV-1" target="pU9Nuj2Ota8fJku8dNai-34" edge="1">
          <mxGeometry width="50" height="50" relative="1" as="geometry">
            <mxPoint x="680" y="450" as="sourcePoint" />
            <mxPoint x="250" y="320" as="targetPoint" />
          </mxGeometry>
        </mxCell>
        <mxCell id="pU9Nuj2Ota8fJku8dNai-86" value="" style="endArrow=none;html=1;rounded=0;" parent="WIyWlLk6GJQsqaUBKTNV-1" edge="1">
          <mxGeometry width="50" height="50" relative="1" as="geometry">
            <mxPoint x="680" y="180" as="sourcePoint" />
            <mxPoint x="680" y="450" as="targetPoint" />
          </mxGeometry>
        </mxCell>
        <mxCell id="pU9Nuj2Ota8fJku8dNai-91" value="" style="endArrow=classic;html=1;rounded=0;entryX=1;entryY=0.5;entryDx=0;entryDy=0;" parent="WIyWlLk6GJQsqaUBKTNV-1" target="pU9Nuj2Ota8fJku8dNai-7" edge="1">
          <mxGeometry width="50" height="50" relative="1" as="geometry">
            <mxPoint x="680" y="180" as="sourcePoint" />
            <mxPoint x="250" y="320" as="targetPoint" />
          </mxGeometry>
        </mxCell>
        <mxCell id="pU9Nuj2Ota8fJku8dNai-92" value="No" style="text;strokeColor=none;fillColor=none;align=left;verticalAlign=middle;spacingLeft=4;spacingRight=4;overflow=hidden;points=[[0,0.5],[1,0.5]];portConstraint=eastwest;rotatable=0;whiteSpace=wrap;html=1;" parent="WIyWlLk6GJQsqaUBKTNV-1" vertex="1">
          <mxGeometry x="650" y="420" width="40" height="20" as="geometry" />
        </mxCell>
        <mxCell id="pU9Nuj2Ota8fJku8dNai-94" value="임시 저장 &lt;br&gt;목록 페이지로 전환" style="rounded=1;whiteSpace=wrap;html=1;" parent="WIyWlLk6GJQsqaUBKTNV-1" vertex="1">
          <mxGeometry x="-1240" y="840" width="120" height="60" as="geometry" />
        </mxCell>
        <mxCell id="pU9Nuj2Ota8fJku8dNai-95" value="" style="endArrow=classic;html=1;rounded=0;exitX=0.5;exitY=1;exitDx=0;exitDy=0;entryX=0.5;entryY=0;entryDx=0;entryDy=0;" parent="WIyWlLk6GJQsqaUBKTNV-1" target="pU9Nuj2Ota8fJku8dNai-94" edge="1">
          <mxGeometry width="50" height="50" relative="1" as="geometry">
            <mxPoint x="-1180" y="820" as="sourcePoint" />
            <mxPoint x="-1180" y="860" as="targetPoint" />
          </mxGeometry>
        </mxCell>
        <mxCell id="pU9Nuj2Ota8fJku8dNai-107" value="" style="edgeStyle=orthogonalEdgeStyle;rounded=0;orthogonalLoop=1;jettySize=auto;html=1;" parent="WIyWlLk6GJQsqaUBKTNV-1" source="pU9Nuj2Ota8fJku8dNai-96" edge="1">
          <mxGeometry relative="1" as="geometry">
            <mxPoint x="100" y="240" as="targetPoint" />
          </mxGeometry>
        </mxCell>
        <mxCell id="pU9Nuj2Ota8fJku8dNai-96" value="검색" style="rounded=0;whiteSpace=wrap;html=1;" parent="WIyWlLk6GJQsqaUBKTNV-1" vertex="1">
          <mxGeometry x="40" y="150" width="120" height="60" as="geometry" />
        </mxCell>
        <mxCell id="pU9Nuj2Ota8fJku8dNai-105" value="" style="endArrow=classic;html=1;rounded=0;entryX=0.5;entryY=0;entryDx=0;entryDy=0;" parent="WIyWlLk6GJQsqaUBKTNV-1" target="pU9Nuj2Ota8fJku8dNai-96" edge="1">
          <mxGeometry width="50" height="50" relative="1" as="geometry">
            <mxPoint x="415" y="120" as="sourcePoint" />
            <mxPoint x="105" y="150" as="targetPoint" />
            <Array as="points">
              <mxPoint x="100" y="120" />
            </Array>
          </mxGeometry>
        </mxCell>
        <mxCell id="pU9Nuj2Ota8fJku8dNai-108" value="&lt;span style=&quot;font-size: 15px;&quot;&gt;&lt;b&gt;&amp;lt;&amp;lt; 전자결재 문서&lt;br&gt;검색 결과&lt;/b&gt;&lt;/span&gt;" style="text;html=1;align=center;verticalAlign=middle;whiteSpace=wrap;rounded=0;" parent="WIyWlLk6GJQsqaUBKTNV-1" vertex="1">
          <mxGeometry x="160" y="250" width="150" height="40" as="geometry" />
        </mxCell>
        <mxCell id="pU9Nuj2Ota8fJku8dNai-109" value="검색 결과의 문서&lt;br&gt;게시판의 목록 형태로&lt;br&gt;화면에 표시" style="rounded=1;whiteSpace=wrap;html=1;" parent="WIyWlLk6GJQsqaUBKTNV-1" vertex="1">
          <mxGeometry x="40" y="240" width="120" height="60" as="geometry" />
        </mxCell>
        <mxCell id="pU9Nuj2Ota8fJku8dNai-118" value="" style="edgeStyle=orthogonalEdgeStyle;rounded=0;orthogonalLoop=1;jettySize=auto;html=1;entryX=0.5;entryY=0;entryDx=0;entryDy=0;" parent="WIyWlLk6GJQsqaUBKTNV-1" target="pU9Nuj2Ota8fJku8dNai-113" edge="1">
          <mxGeometry relative="1" as="geometry">
            <mxPoint x="-700" y="310" as="sourcePoint" />
            <mxPoint x="-1029.9999999999998" y="330" as="targetPoint" />
          </mxGeometry>
        </mxCell>
        <mxCell id="pU9Nuj2Ota8fJku8dNai-119" style="edgeStyle=orthogonalEdgeStyle;rounded=0;orthogonalLoop=1;jettySize=auto;html=1;entryX=0.5;entryY=0;entryDx=0;entryDy=0;" parent="WIyWlLk6GJQsqaUBKTNV-1" target="pU9Nuj2Ota8fJku8dNai-115" edge="1">
          <mxGeometry relative="1" as="geometry">
            <mxPoint x="-710" y="310" as="sourcePoint" />
            <mxPoint x="-520" y="510" as="targetPoint" />
          </mxGeometry>
        </mxCell>
        <mxCell id="FxKuk05yWhdDs-jEQxmQ-4" value="" style="edgeStyle=orthogonalEdgeStyle;rounded=0;orthogonalLoop=1;jettySize=auto;html=1;" parent="WIyWlLk6GJQsqaUBKTNV-1" source="pU9Nuj2Ota8fJku8dNai-110" target="FxKuk05yWhdDs-jEQxmQ-3" edge="1">
          <mxGeometry relative="1" as="geometry" />
        </mxCell>
        <mxCell id="pU9Nuj2Ota8fJku8dNai-110" value="전체 문서함" style="rounded=0;whiteSpace=wrap;html=1;" parent="WIyWlLk6GJQsqaUBKTNV-1" vertex="1">
          <mxGeometry x="-770" y="150" width="120" height="60" as="geometry" />
        </mxCell>
        <mxCell id="pU9Nuj2Ota8fJku8dNai-121" value="" style="edgeStyle=orthogonalEdgeStyle;rounded=0;orthogonalLoop=1;jettySize=auto;html=1;" parent="WIyWlLk6GJQsqaUBKTNV-1" source="pU9Nuj2Ota8fJku8dNai-113" edge="1">
          <mxGeometry relative="1" as="geometry">
            <mxPoint x="-709.9999999999998" y="410" as="targetPoint" />
          </mxGeometry>
        </mxCell>
        <mxCell id="pU9Nuj2Ota8fJku8dNai-113" value="결재 보류" style="rounded=0;whiteSpace=wrap;html=1;" parent="WIyWlLk6GJQsqaUBKTNV-1" vertex="1">
          <mxGeometry x="-770" y="330" width="120" height="60" as="geometry" />
        </mxCell>
        <mxCell id="pU9Nuj2Ota8fJku8dNai-115" value="결재 재요청&lt;br&gt;(결재 정보 잘못&lt;br&gt;입력했을 때)" style="rounded=0;whiteSpace=wrap;html=1;" parent="WIyWlLk6GJQsqaUBKTNV-1" vertex="1">
          <mxGeometry x="-630" y="330" width="120" height="60" as="geometry" />
        </mxCell>
        <mxCell id="pU9Nuj2Ota8fJku8dNai-125" value="" style="edgeStyle=orthogonalEdgeStyle;rounded=0;orthogonalLoop=1;jettySize=auto;html=1;" parent="WIyWlLk6GJQsqaUBKTNV-1" source="pU9Nuj2Ota8fJku8dNai-122" target="pU9Nuj2Ota8fJku8dNai-124" edge="1">
          <mxGeometry relative="1" as="geometry" />
        </mxCell>
        <mxCell id="pU9Nuj2Ota8fJku8dNai-122" value="&lt;div&gt;결재 보류&lt;br&gt;사유 입력&lt;/div&gt;" style="shape=parallelogram;perimeter=parallelogramPerimeter;whiteSpace=wrap;html=1;fixedSize=1;" parent="WIyWlLk6GJQsqaUBKTNV-1" vertex="1">
          <mxGeometry x="-770" y="410" width="120" height="60" as="geometry" />
        </mxCell>
        <mxCell id="pU9Nuj2Ota8fJku8dNai-127" style="edgeStyle=orthogonalEdgeStyle;rounded=0;orthogonalLoop=1;jettySize=auto;html=1;exitX=0.5;exitY=1;exitDx=0;exitDy=0;entryX=0.5;entryY=0;entryDx=0;entryDy=0;" parent="WIyWlLk6GJQsqaUBKTNV-1" source="pU9Nuj2Ota8fJku8dNai-124" target="pU9Nuj2Ota8fJku8dNai-126" edge="1">
          <mxGeometry relative="1" as="geometry" />
        </mxCell>
        <mxCell id="pU9Nuj2Ota8fJku8dNai-124" value="결재 보류 완료" style="whiteSpace=wrap;html=1;" parent="WIyWlLk6GJQsqaUBKTNV-1" vertex="1">
          <mxGeometry x="-770" y="490" width="120" height="60" as="geometry" />
        </mxCell>
        <mxCell id="pU9Nuj2Ota8fJku8dNai-126" value="결재 목록&lt;br&gt;페이지로 전환" style="rounded=1;whiteSpace=wrap;html=1;" parent="WIyWlLk6GJQsqaUBKTNV-1" vertex="1">
          <mxGeometry x="-770" y="710" width="120" height="60" as="geometry" />
        </mxCell>
        <mxCell id="pU9Nuj2Ota8fJku8dNai-135" value="결재 재요청&lt;div&gt;(반려된 결재)&lt;br&gt;&lt;/div&gt;" style="rounded=0;whiteSpace=wrap;html=1;" parent="WIyWlLk6GJQsqaUBKTNV-1" vertex="1">
          <mxGeometry x="-490" y="330" width="120" height="60" as="geometry" />
        </mxCell>
        <mxCell id="pU9Nuj2Ota8fJku8dNai-136" value="결재 삭제 요청" style="rounded=0;whiteSpace=wrap;html=1;" parent="WIyWlLk6GJQsqaUBKTNV-1" vertex="1">
          <mxGeometry x="-920" y="330" width="120" height="60" as="geometry" />
        </mxCell>
        <mxCell id="pU9Nuj2Ota8fJku8dNai-137" value="" style="endArrow=classic;html=1;rounded=0;entryX=0.5;entryY=0;entryDx=0;entryDy=0;" parent="WIyWlLk6GJQsqaUBKTNV-1" target="pU9Nuj2Ota8fJku8dNai-136" edge="1">
          <mxGeometry width="50" height="50" relative="1" as="geometry">
            <mxPoint x="-710" y="310" as="sourcePoint" />
            <mxPoint x="-930" y="450" as="targetPoint" />
            <Array as="points">
              <mxPoint x="-860" y="310" />
            </Array>
          </mxGeometry>
        </mxCell>
        <mxCell id="pU9Nuj2Ota8fJku8dNai-139" value="" style="edgeStyle=orthogonalEdgeStyle;rounded=0;orthogonalLoop=1;jettySize=auto;html=1;" parent="WIyWlLk6GJQsqaUBKTNV-1" edge="1">
          <mxGeometry relative="1" as="geometry">
            <mxPoint x="-860" y="390" as="sourcePoint" />
            <mxPoint x="-859.9999999999998" y="410" as="targetPoint" />
          </mxGeometry>
        </mxCell>
        <mxCell id="pU9Nuj2Ota8fJku8dNai-140" value="" style="edgeStyle=orthogonalEdgeStyle;rounded=0;orthogonalLoop=1;jettySize=auto;html=1;" parent="WIyWlLk6GJQsqaUBKTNV-1" source="pU9Nuj2Ota8fJku8dNai-141" target="pU9Nuj2Ota8fJku8dNai-142" edge="1">
          <mxGeometry relative="1" as="geometry" />
        </mxCell>
        <mxCell id="pU9Nuj2Ota8fJku8dNai-141" value="&lt;div&gt;결재 삭제 요청&lt;br&gt;사유 입력&lt;/div&gt;" style="shape=parallelogram;perimeter=parallelogramPerimeter;whiteSpace=wrap;html=1;fixedSize=1;" parent="WIyWlLk6GJQsqaUBKTNV-1" vertex="1">
          <mxGeometry x="-920" y="410" width="120" height="60" as="geometry" />
        </mxCell>
        <mxCell id="pU9Nuj2Ota8fJku8dNai-142" value="결재 삭제 요청 완료" style="whiteSpace=wrap;html=1;" parent="WIyWlLk6GJQsqaUBKTNV-1" vertex="1">
          <mxGeometry x="-920" y="490" width="120" height="60" as="geometry" />
        </mxCell>
        <mxCell id="pU9Nuj2Ota8fJku8dNai-145" value="" style="endArrow=none;html=1;rounded=0;exitX=0.5;exitY=1;exitDx=0;exitDy=0;" parent="WIyWlLk6GJQsqaUBKTNV-1" source="pU9Nuj2Ota8fJku8dNai-142" edge="1">
          <mxGeometry width="50" height="50" relative="1" as="geometry">
            <mxPoint x="-1120" y="500" as="sourcePoint" />
            <mxPoint x="-860" y="570" as="targetPoint" />
          </mxGeometry>
        </mxCell>
        <mxCell id="pU9Nuj2Ota8fJku8dNai-146" value="" style="endArrow=none;html=1;rounded=0;" parent="WIyWlLk6GJQsqaUBKTNV-1" edge="1">
          <mxGeometry width="50" height="50" relative="1" as="geometry">
            <mxPoint x="-860" y="570" as="sourcePoint" />
            <mxPoint x="-710" y="570" as="targetPoint" />
          </mxGeometry>
        </mxCell>
        <mxCell id="pU9Nuj2Ota8fJku8dNai-147" style="edgeStyle=orthogonalEdgeStyle;rounded=0;orthogonalLoop=1;jettySize=auto;html=1;entryX=0.5;entryY=0;entryDx=0;entryDy=0;" parent="WIyWlLk6GJQsqaUBKTNV-1" edge="1">
          <mxGeometry relative="1" as="geometry">
            <mxPoint x="-570" y="310" as="sourcePoint" />
            <mxPoint x="-430" y="330" as="targetPoint" />
          </mxGeometry>
        </mxCell>
        <mxCell id="FxKuk05yWhdDs-jEQxmQ-7" value="" style="edgeStyle=orthogonalEdgeStyle;rounded=0;orthogonalLoop=1;jettySize=auto;html=1;" parent="WIyWlLk6GJQsqaUBKTNV-1" source="pU9Nuj2Ota8fJku8dNai-149" target="FxKuk05yWhdDs-jEQxmQ-6" edge="1">
          <mxGeometry relative="1" as="geometry" />
        </mxCell>
        <mxCell id="pU9Nuj2Ota8fJku8dNai-149" value="&lt;div&gt;결재 재요청&lt;br&gt;사유 입력&lt;/div&gt;" style="shape=parallelogram;perimeter=parallelogramPerimeter;whiteSpace=wrap;html=1;fixedSize=1;" parent="WIyWlLk6GJQsqaUBKTNV-1" vertex="1">
          <mxGeometry x="-630" y="410" width="120" height="60" as="geometry" />
        </mxCell>
        <mxCell id="pU9Nuj2Ota8fJku8dNai-150" value="결재 재요청 완료" style="whiteSpace=wrap;html=1;" parent="WIyWlLk6GJQsqaUBKTNV-1" vertex="1">
          <mxGeometry x="-630" y="570" width="120" height="60" as="geometry" />
        </mxCell>
        <mxCell id="pU9Nuj2Ota8fJku8dNai-151" style="edgeStyle=orthogonalEdgeStyle;rounded=0;orthogonalLoop=1;jettySize=auto;html=1;exitX=0.5;exitY=1;exitDx=0;exitDy=0;" parent="WIyWlLk6GJQsqaUBKTNV-1" edge="1">
          <mxGeometry relative="1" as="geometry">
            <mxPoint x="-570" y="390" as="sourcePoint" />
            <mxPoint x="-570" y="390" as="targetPoint" />
          </mxGeometry>
        </mxCell>
        <mxCell id="pU9Nuj2Ota8fJku8dNai-152" value="" style="endArrow=classic;html=1;rounded=0;exitX=0.5;exitY=1;exitDx=0;exitDy=0;entryX=0.5;entryY=0;entryDx=0;entryDy=0;" parent="WIyWlLk6GJQsqaUBKTNV-1" target="pU9Nuj2Ota8fJku8dNai-149" edge="1">
          <mxGeometry width="50" height="50" relative="1" as="geometry">
            <mxPoint x="-570" y="390" as="sourcePoint" />
            <mxPoint x="-200" y="450" as="targetPoint" />
          </mxGeometry>
        </mxCell>
        <mxCell id="pU9Nuj2Ota8fJku8dNai-155" value="" style="endArrow=classic;html=1;rounded=0;entryX=1;entryY=0.5;entryDx=0;entryDy=0;exitX=0.5;exitY=1;exitDx=0;exitDy=0;" parent="WIyWlLk6GJQsqaUBKTNV-1" source="pU9Nuj2Ota8fJku8dNai-135" target="pU9Nuj2Ota8fJku8dNai-149" edge="1">
          <mxGeometry width="50" height="50" relative="1" as="geometry">
            <mxPoint x="-350" y="490" as="sourcePoint" />
            <mxPoint x="-710" y="450" as="targetPoint" />
            <Array as="points">
              <mxPoint x="-430" y="440" />
            </Array>
          </mxGeometry>
        </mxCell>
        <mxCell id="pU9Nuj2Ota8fJku8dNai-157" value="&lt;b&gt;&lt;font style=&quot;font-size: 20px;&quot;&gt;&amp;lt;전자 결재 페이지 흐름도&amp;gt;&lt;/font&gt;&lt;/b&gt;" style="text;html=1;align=center;verticalAlign=middle;whiteSpace=wrap;rounded=0;strokeWidth=2;" parent="WIyWlLk6GJQsqaUBKTNV-1" vertex="1">
          <mxGeometry x="-690" y="40" width="252" height="40" as="geometry" />
        </mxCell>
        <mxCell id="FxKuk05yWhdDs-jEQxmQ-0" value="" style="edgeStyle=orthogonalEdgeStyle;rounded=0;orthogonalLoop=1;jettySize=auto;html=1;" parent="WIyWlLk6GJQsqaUBKTNV-1" source="-jZNXEl55919P5bCcj8j-1" target="-jZNXEl55919P5bCcj8j-2" edge="1">
          <mxGeometry relative="1" as="geometry" />
        </mxCell>
        <mxCell id="-jZNXEl55919P5bCcj8j-1" value="전자결재 문서함&lt;br&gt;페이지 진입" style="rounded=1;whiteSpace=wrap;html=1;" parent="WIyWlLk6GJQsqaUBKTNV-1" vertex="1">
          <mxGeometry x="490.5" y="1550" width="120" height="60" as="geometry" />
        </mxCell>
        <mxCell id="-jZNXEl55919P5bCcj8j-2" value="전자결재 문서함" style="rounded=0;whiteSpace=wrap;html=1;" parent="WIyWlLk6GJQsqaUBKTNV-1" vertex="1">
          <mxGeometry x="490.5" y="1640" width="120" height="60" as="geometry" />
        </mxCell>
        <mxCell id="-jZNXEl55919P5bCcj8j-16" value="문서 저장" style="rounded=0;whiteSpace=wrap;html=1;" parent="WIyWlLk6GJQsqaUBKTNV-1" vertex="1">
          <mxGeometry x="430" y="1770" width="120" height="60" as="geometry" />
        </mxCell>
        <mxCell id="-jZNXEl55919P5bCcj8j-17" value="문서 수정" style="rounded=0;whiteSpace=wrap;html=1;" parent="WIyWlLk6GJQsqaUBKTNV-1" vertex="1">
          <mxGeometry x="570" y="1770" width="120" height="60" as="geometry" />
        </mxCell>
        <mxCell id="-jZNXEl55919P5bCcj8j-18" value="문서 삭제" style="rounded=0;whiteSpace=wrap;html=1;" parent="WIyWlLk6GJQsqaUBKTNV-1" vertex="1">
          <mxGeometry x="710" y="1770" width="120" height="60" as="geometry" />
        </mxCell>
        <mxCell id="-jZNXEl55919P5bCcj8j-19" value="중요 문서&lt;br&gt;상단에 핀 고정" style="rounded=0;whiteSpace=wrap;html=1;" parent="WIyWlLk6GJQsqaUBKTNV-1" vertex="1">
          <mxGeometry x="850" y="1770" width="120" height="60" as="geometry" />
        </mxCell>
        <mxCell id="-jZNXEl55919P5bCcj8j-20" value="" style="endArrow=none;html=1;rounded=0;" parent="WIyWlLk6GJQsqaUBKTNV-1" edge="1">
          <mxGeometry width="50" height="50" relative="1" as="geometry">
            <mxPoint x="210" y="1730" as="sourcePoint" />
            <mxPoint x="910" y="1730" as="targetPoint" />
          </mxGeometry>
        </mxCell>
        <mxCell id="-jZNXEl55919P5bCcj8j-22" value="" style="endArrow=classic;html=1;rounded=0;entryX=0.5;entryY=0;entryDx=0;entryDy=0;" parent="WIyWlLk6GJQsqaUBKTNV-1" target="-jZNXEl55919P5bCcj8j-16" edge="1">
          <mxGeometry width="50" height="50" relative="1" as="geometry">
            <mxPoint x="490" y="1730" as="sourcePoint" />
            <mxPoint x="630" y="1790" as="targetPoint" />
          </mxGeometry>
        </mxCell>
        <mxCell id="-jZNXEl55919P5bCcj8j-23" value="" style="endArrow=classic;html=1;rounded=0;entryX=0.5;entryY=0;entryDx=0;entryDy=0;" parent="WIyWlLk6GJQsqaUBKTNV-1" edge="1">
          <mxGeometry width="50" height="50" relative="1" as="geometry">
            <mxPoint x="630" y="1730" as="sourcePoint" />
            <mxPoint x="630" y="1770" as="targetPoint" />
          </mxGeometry>
        </mxCell>
        <mxCell id="-jZNXEl55919P5bCcj8j-24" value="" style="endArrow=classic;html=1;rounded=0;entryX=0.5;entryY=0;entryDx=0;entryDy=0;" parent="WIyWlLk6GJQsqaUBKTNV-1" edge="1">
          <mxGeometry width="50" height="50" relative="1" as="geometry">
            <mxPoint x="770" y="1730" as="sourcePoint" />
            <mxPoint x="770" y="1770" as="targetPoint" />
          </mxGeometry>
        </mxCell>
        <mxCell id="-jZNXEl55919P5bCcj8j-25" value="" style="endArrow=classic;html=1;rounded=0;entryX=0.5;entryY=0;entryDx=0;entryDy=0;" parent="WIyWlLk6GJQsqaUBKTNV-1" edge="1">
          <mxGeometry width="50" height="50" relative="1" as="geometry">
            <mxPoint x="910" y="1730" as="sourcePoint" />
            <mxPoint x="910" y="1770" as="targetPoint" />
          </mxGeometry>
        </mxCell>
        <mxCell id="-jZNXEl55919P5bCcj8j-29" value="" style="endArrow=none;html=1;rounded=0;exitX=0.5;exitY=1;exitDx=0;exitDy=0;" parent="WIyWlLk6GJQsqaUBKTNV-1" edge="1">
          <mxGeometry width="50" height="50" relative="1" as="geometry">
            <mxPoint x="550" y="1700" as="sourcePoint" />
            <mxPoint x="550" y="1730" as="targetPoint" />
          </mxGeometry>
        </mxCell>
        <mxCell id="-jZNXEl55919P5bCcj8j-30" value="문서 저장 완료" style="rounded=0;whiteSpace=wrap;html=1;" parent="WIyWlLk6GJQsqaUBKTNV-1" vertex="1">
          <mxGeometry x="430" y="1860" width="120" height="60" as="geometry" />
        </mxCell>
        <mxCell id="-jZNXEl55919P5bCcj8j-31" value="문서 수정 완료" style="rounded=0;whiteSpace=wrap;html=1;" parent="WIyWlLk6GJQsqaUBKTNV-1" vertex="1">
          <mxGeometry x="570" y="1860" width="120" height="60" as="geometry" />
        </mxCell>
        <mxCell id="-jZNXEl55919P5bCcj8j-32" value="문서 삭제 완료" style="rounded=0;whiteSpace=wrap;html=1;" parent="WIyWlLk6GJQsqaUBKTNV-1" vertex="1">
          <mxGeometry x="710" y="1860" width="120" height="60" as="geometry" />
        </mxCell>
        <mxCell id="-jZNXEl55919P5bCcj8j-34" value="" style="endArrow=classic;html=1;rounded=0;exitX=0.5;exitY=1;exitDx=0;exitDy=0;entryX=0.5;entryY=0;entryDx=0;entryDy=0;" parent="WIyWlLk6GJQsqaUBKTNV-1" source="-jZNXEl55919P5bCcj8j-16" target="-jZNXEl55919P5bCcj8j-30" edge="1">
          <mxGeometry width="50" height="50" relative="1" as="geometry">
            <mxPoint x="650" y="1830" as="sourcePoint" />
            <mxPoint x="700" y="1780" as="targetPoint" />
          </mxGeometry>
        </mxCell>
        <mxCell id="-jZNXEl55919P5bCcj8j-35" value="" style="endArrow=classic;html=1;rounded=0;exitX=0.5;exitY=1;exitDx=0;exitDy=0;entryX=0.5;entryY=0;entryDx=0;entryDy=0;" parent="WIyWlLk6GJQsqaUBKTNV-1" edge="1">
          <mxGeometry width="50" height="50" relative="1" as="geometry">
            <mxPoint x="630" y="1830" as="sourcePoint" />
            <mxPoint x="630" y="1860" as="targetPoint" />
          </mxGeometry>
        </mxCell>
        <mxCell id="-jZNXEl55919P5bCcj8j-36" value="" style="endArrow=classic;html=1;rounded=0;exitX=0.5;exitY=1;exitDx=0;exitDy=0;entryX=0.5;entryY=0;entryDx=0;entryDy=0;" parent="WIyWlLk6GJQsqaUBKTNV-1" edge="1">
          <mxGeometry width="50" height="50" relative="1" as="geometry">
            <mxPoint x="770" y="1830" as="sourcePoint" />
            <mxPoint x="770" y="1860" as="targetPoint" />
          </mxGeometry>
        </mxCell>
        <mxCell id="-jZNXEl55919P5bCcj8j-37" value="전자결재 문서함&lt;br&gt;페이지로 전환" style="rounded=1;whiteSpace=wrap;html=1;" parent="WIyWlLk6GJQsqaUBKTNV-1" vertex="1">
          <mxGeometry x="570" y="1960" width="120" height="60" as="geometry" />
        </mxCell>
        <mxCell id="-jZNXEl55919P5bCcj8j-41" value="" style="endArrow=none;html=1;rounded=0;" parent="WIyWlLk6GJQsqaUBKTNV-1" edge="1">
          <mxGeometry width="50" height="50" relative="1" as="geometry">
            <mxPoint x="490" y="1940" as="sourcePoint" />
            <mxPoint x="770" y="1940" as="targetPoint" />
          </mxGeometry>
        </mxCell>
        <mxCell id="-jZNXEl55919P5bCcj8j-42" value="" style="endArrow=none;html=1;rounded=0;exitX=0.5;exitY=1;exitDx=0;exitDy=0;" parent="WIyWlLk6GJQsqaUBKTNV-1" source="-jZNXEl55919P5bCcj8j-30" edge="1">
          <mxGeometry width="50" height="50" relative="1" as="geometry">
            <mxPoint x="710" y="1930" as="sourcePoint" />
            <mxPoint x="490" y="1940" as="targetPoint" />
          </mxGeometry>
        </mxCell>
        <mxCell id="-jZNXEl55919P5bCcj8j-43" value="" style="endArrow=none;html=1;rounded=0;exitX=0.5;exitY=1;exitDx=0;exitDy=0;" parent="WIyWlLk6GJQsqaUBKTNV-1" edge="1">
          <mxGeometry width="50" height="50" relative="1" as="geometry">
            <mxPoint x="630" y="1920" as="sourcePoint" />
            <mxPoint x="630" y="1940" as="targetPoint" />
          </mxGeometry>
        </mxCell>
        <mxCell id="-jZNXEl55919P5bCcj8j-44" value="" style="endArrow=none;html=1;rounded=0;exitX=0.5;exitY=1;exitDx=0;exitDy=0;" parent="WIyWlLk6GJQsqaUBKTNV-1" edge="1">
          <mxGeometry width="50" height="50" relative="1" as="geometry">
            <mxPoint x="770" y="1920" as="sourcePoint" />
            <mxPoint x="770" y="1940" as="targetPoint" />
          </mxGeometry>
        </mxCell>
        <mxCell id="-jZNXEl55919P5bCcj8j-45" value="" style="endArrow=classic;html=1;rounded=0;exitX=0.5;exitY=1;exitDx=0;exitDy=0;entryX=0.5;entryY=0;entryDx=0;entryDy=0;" parent="WIyWlLk6GJQsqaUBKTNV-1" source="-jZNXEl55919P5bCcj8j-31" target="-jZNXEl55919P5bCcj8j-37" edge="1">
          <mxGeometry width="50" height="50" relative="1" as="geometry">
            <mxPoint x="710" y="1930" as="sourcePoint" />
            <mxPoint x="760" y="1880" as="targetPoint" />
          </mxGeometry>
        </mxCell>
        <mxCell id="802IZu_FXquQmbkb_kDj-4" value="문서 검색" style="rounded=0;whiteSpace=wrap;html=1;" parent="WIyWlLk6GJQsqaUBKTNV-1" vertex="1">
          <mxGeometry x="150" y="1770" width="120" height="60" as="geometry" />
        </mxCell>
        <mxCell id="802IZu_FXquQmbkb_kDj-5" value="전자결재 문서함의 &lt;br&gt;문서 제목 클릭" style="rounded=0;whiteSpace=wrap;html=1;" parent="WIyWlLk6GJQsqaUBKTNV-1" vertex="1">
          <mxGeometry x="290" y="1770" width="120" height="60" as="geometry" />
        </mxCell>
        <mxCell id="802IZu_FXquQmbkb_kDj-14" value="" style="endArrow=classic;html=1;rounded=0;entryX=0.5;entryY=0;entryDx=0;entryDy=0;" parent="WIyWlLk6GJQsqaUBKTNV-1" edge="1">
          <mxGeometry width="50" height="50" relative="1" as="geometry">
            <mxPoint x="210" y="1730" as="sourcePoint" />
            <mxPoint x="210" y="1770" as="targetPoint" />
          </mxGeometry>
        </mxCell>
        <mxCell id="802IZu_FXquQmbkb_kDj-15" value="" style="endArrow=classic;html=1;rounded=0;entryX=0.5;entryY=0;entryDx=0;entryDy=0;" parent="WIyWlLk6GJQsqaUBKTNV-1" edge="1">
          <mxGeometry width="50" height="50" relative="1" as="geometry">
            <mxPoint x="350" y="1730" as="sourcePoint" />
            <mxPoint x="350" y="1770" as="targetPoint" />
          </mxGeometry>
        </mxCell>
        <mxCell id="802IZu_FXquQmbkb_kDj-16" value="문서 검색 완료" style="rounded=0;whiteSpace=wrap;html=1;" parent="WIyWlLk6GJQsqaUBKTNV-1" vertex="1">
          <mxGeometry x="150" y="1860" width="120" height="60" as="geometry" />
        </mxCell>
        <mxCell id="802IZu_FXquQmbkb_kDj-18" value="" style="endArrow=classic;html=1;rounded=0;exitX=0.5;exitY=1;exitDx=0;exitDy=0;entryX=0.5;entryY=0;entryDx=0;entryDy=0;" parent="WIyWlLk6GJQsqaUBKTNV-1" target="802IZu_FXquQmbkb_kDj-16" edge="1">
          <mxGeometry width="50" height="50" relative="1" as="geometry">
            <mxPoint x="210" y="1830" as="sourcePoint" />
            <mxPoint x="420" y="1780" as="targetPoint" />
          </mxGeometry>
        </mxCell>
        <mxCell id="802IZu_FXquQmbkb_kDj-19" value="" style="endArrow=classic;html=1;rounded=0;exitX=0.5;exitY=1;exitDx=0;exitDy=0;entryX=0.5;entryY=0;entryDx=0;entryDy=0;" parent="WIyWlLk6GJQsqaUBKTNV-1" edge="1">
          <mxGeometry width="50" height="50" relative="1" as="geometry">
            <mxPoint x="350" y="1830" as="sourcePoint" />
            <mxPoint x="350" y="1860" as="targetPoint" />
          </mxGeometry>
        </mxCell>
        <mxCell id="802IZu_FXquQmbkb_kDj-20" value="" style="endArrow=classic;html=1;rounded=0;exitX=0.5;exitY=1;exitDx=0;exitDy=0;" parent="WIyWlLk6GJQsqaUBKTNV-1" source="802IZu_FXquQmbkb_kDj-16" edge="1">
          <mxGeometry width="50" height="50" relative="1" as="geometry">
            <mxPoint x="510" y="1910" as="sourcePoint" />
            <mxPoint x="210" y="1950" as="targetPoint" />
          </mxGeometry>
        </mxCell>
        <mxCell id="802IZu_FXquQmbkb_kDj-22" value="결재문서함 검색 결과&lt;br&gt;목록 페이지로 전환" style="rounded=1;whiteSpace=wrap;html=1;" parent="WIyWlLk6GJQsqaUBKTNV-1" vertex="1">
          <mxGeometry x="150" y="1950" width="120" height="60" as="geometry" />
        </mxCell>
        <mxCell id="802IZu_FXquQmbkb_kDj-24" value="해당 문서&lt;div&gt;상세 페이지로 전환&lt;/div&gt;" style="rounded=1;whiteSpace=wrap;html=1;" parent="WIyWlLk6GJQsqaUBKTNV-1" vertex="1">
          <mxGeometry x="290" y="1860" width="120" height="60" as="geometry" />
        </mxCell>
        <mxCell id="FxKuk05yWhdDs-jEQxmQ-2" value="결재 신청" style="rounded=0;whiteSpace=wrap;html=1;" parent="WIyWlLk6GJQsqaUBKTNV-1" vertex="1">
          <mxGeometry x="-1080" y="330" width="120" height="60" as="geometry" />
        </mxCell>
        <mxCell id="FxKuk05yWhdDs-jEQxmQ-3" value="문서함(전자결재)&lt;br&gt;상세 목록 페이지" style="whiteSpace=wrap;html=1;rounded=0;" parent="WIyWlLk6GJQsqaUBKTNV-1" vertex="1">
          <mxGeometry x="-770" y="230" width="120" height="60" as="geometry" />
        </mxCell>
        <mxCell id="FxKuk05yWhdDs-jEQxmQ-5" value="" style="endArrow=none;html=1;rounded=0;exitX=0.5;exitY=1;exitDx=0;exitDy=0;" parent="WIyWlLk6GJQsqaUBKTNV-1" source="FxKuk05yWhdDs-jEQxmQ-3" edge="1">
          <mxGeometry width="50" height="50" relative="1" as="geometry">
            <mxPoint x="-610" y="390" as="sourcePoint" />
            <mxPoint x="-710" y="310" as="targetPoint" />
          </mxGeometry>
        </mxCell>
        <mxCell id="FxKuk05yWhdDs-jEQxmQ-8" value="" style="edgeStyle=orthogonalEdgeStyle;rounded=0;orthogonalLoop=1;jettySize=auto;html=1;" parent="WIyWlLk6GJQsqaUBKTNV-1" source="FxKuk05yWhdDs-jEQxmQ-6" target="pU9Nuj2Ota8fJku8dNai-150" edge="1">
          <mxGeometry relative="1" as="geometry" />
        </mxCell>
        <mxCell id="FxKuk05yWhdDs-jEQxmQ-6" value="결재 문서 수정 완료" style="whiteSpace=wrap;html=1;" parent="WIyWlLk6GJQsqaUBKTNV-1" vertex="1">
          <mxGeometry x="-630" y="490" width="120" height="60" as="geometry" />
        </mxCell>
        <mxCell id="FxKuk05yWhdDs-jEQxmQ-9" value="" style="endArrow=none;html=1;rounded=0;exitX=0;exitY=0.5;exitDx=0;exitDy=0;" parent="WIyWlLk6GJQsqaUBKTNV-1" source="pU9Nuj2Ota8fJku8dNai-150" edge="1">
          <mxGeometry width="50" height="50" relative="1" as="geometry">
            <mxPoint x="-610" y="550" as="sourcePoint" />
            <mxPoint x="-710" y="600" as="targetPoint" />
          </mxGeometry>
        </mxCell>
        <mxCell id="FxKuk05yWhdDs-jEQxmQ-23" value="" style="edgeStyle=orthogonalEdgeStyle;rounded=0;orthogonalLoop=1;jettySize=auto;html=1;" parent="WIyWlLk6GJQsqaUBKTNV-1" source="FxKuk05yWhdDs-jEQxmQ-10" target="FxKuk05yWhdDs-jEQxmQ-20" edge="1">
          <mxGeometry relative="1" as="geometry" />
        </mxCell>
        <mxCell id="FxKuk05yWhdDs-jEQxmQ-10" value="결재 요청 메뉴" style="rounded=0;whiteSpace=wrap;html=1;" parent="WIyWlLk6GJQsqaUBKTNV-1" vertex="1">
          <mxGeometry x="-1650" y="150" width="120" height="60" as="geometry" />
        </mxCell>
        <mxCell id="FxKuk05yWhdDs-jEQxmQ-24" value="" style="edgeStyle=orthogonalEdgeStyle;rounded=0;orthogonalLoop=1;jettySize=auto;html=1;" parent="WIyWlLk6GJQsqaUBKTNV-1" source="FxKuk05yWhdDs-jEQxmQ-11" target="FxKuk05yWhdDs-jEQxmQ-22" edge="1">
          <mxGeometry relative="1" as="geometry" />
        </mxCell>
        <mxCell id="FxKuk05yWhdDs-jEQxmQ-11" value="결재 보류 메뉴" style="rounded=0;whiteSpace=wrap;html=1;" parent="WIyWlLk6GJQsqaUBKTNV-1" vertex="1">
          <mxGeometry x="-1450" y="150" width="120" height="60" as="geometry" />
        </mxCell>
        <mxCell id="FxKuk05yWhdDs-jEQxmQ-25" value="" style="edgeStyle=orthogonalEdgeStyle;rounded=0;orthogonalLoop=1;jettySize=auto;html=1;" parent="WIyWlLk6GJQsqaUBKTNV-1" source="FxKuk05yWhdDs-jEQxmQ-12" target="FxKuk05yWhdDs-jEQxmQ-21" edge="1">
          <mxGeometry relative="1" as="geometry" />
        </mxCell>
        <mxCell id="FxKuk05yWhdDs-jEQxmQ-12" value="결재 완료 메뉴" style="rounded=0;whiteSpace=wrap;html=1;" parent="WIyWlLk6GJQsqaUBKTNV-1" vertex="1">
          <mxGeometry x="-1250" y="150" width="120" height="60" as="geometry" />
        </mxCell>
        <mxCell id="FxKuk05yWhdDs-jEQxmQ-14" value="" style="endArrow=classic;html=1;rounded=0;entryX=0.5;entryY=0;entryDx=0;entryDy=0;" parent="WIyWlLk6GJQsqaUBKTNV-1" target="FxKuk05yWhdDs-jEQxmQ-10" edge="1">
          <mxGeometry width="50" height="50" relative="1" as="geometry">
            <mxPoint x="-1590" y="120" as="sourcePoint" />
            <mxPoint x="-1110" y="300" as="targetPoint" />
          </mxGeometry>
        </mxCell>
        <mxCell id="FxKuk05yWhdDs-jEQxmQ-15" value="" style="endArrow=classic;html=1;rounded=0;entryX=0.5;entryY=0;entryDx=0;entryDy=0;" parent="WIyWlLk6GJQsqaUBKTNV-1" edge="1">
          <mxGeometry width="50" height="50" relative="1" as="geometry">
            <mxPoint x="-1390" y="120" as="sourcePoint" />
            <mxPoint x="-1390" y="150" as="targetPoint" />
          </mxGeometry>
        </mxCell>
        <mxCell id="FxKuk05yWhdDs-jEQxmQ-16" value="" style="endArrow=classic;html=1;rounded=0;entryX=0.5;entryY=0;entryDx=0;entryDy=0;" parent="WIyWlLk6GJQsqaUBKTNV-1" edge="1">
          <mxGeometry width="50" height="50" relative="1" as="geometry">
            <mxPoint x="-1190" y="120" as="sourcePoint" />
            <mxPoint x="-1190" y="150" as="targetPoint" />
          </mxGeometry>
        </mxCell>
        <mxCell id="FxKuk05yWhdDs-jEQxmQ-18" value="" style="endArrow=none;html=1;rounded=0;" parent="WIyWlLk6GJQsqaUBKTNV-1" edge="1">
          <mxGeometry width="50" height="50" relative="1" as="geometry">
            <mxPoint x="110" y="120" as="sourcePoint" />
            <mxPoint x="-1590" y="120" as="targetPoint" />
          </mxGeometry>
        </mxCell>
        <mxCell id="FxKuk05yWhdDs-jEQxmQ-20" value="결재 요청 상태&lt;br&gt;목록만 있는 &lt;br&gt;페이지로 이동" style="rounded=1;whiteSpace=wrap;html=1;" parent="WIyWlLk6GJQsqaUBKTNV-1" vertex="1">
          <mxGeometry x="-1650" y="230" width="120" height="60" as="geometry" />
        </mxCell>
        <mxCell id="FxKuk05yWhdDs-jEQxmQ-21" value="결재 완료 상태&lt;br&gt;목록만 있는 &lt;br&gt;페이지로 이동" style="rounded=1;whiteSpace=wrap;html=1;" parent="WIyWlLk6GJQsqaUBKTNV-1" vertex="1">
          <mxGeometry x="-1250" y="230" width="120" height="60" as="geometry" />
        </mxCell>
        <mxCell id="FxKuk05yWhdDs-jEQxmQ-22" value="결재 보류 상태&lt;br&gt;목록만 있는 &lt;br&gt;페이지로 이동" style="rounded=1;whiteSpace=wrap;html=1;" parent="WIyWlLk6GJQsqaUBKTNV-1" vertex="1">
          <mxGeometry x="-1450" y="230" width="120" height="60" as="geometry" />
        </mxCell>
        <mxCell id="O6iuBpLwriNrMhc-ZvkL-0" value="" style="endArrow=none;html=1;rounded=0;" edge="1" parent="WIyWlLk6GJQsqaUBKTNV-1">
          <mxGeometry width="50" height="50" relative="1" as="geometry">
            <mxPoint x="-860" y="310" as="sourcePoint" />
            <mxPoint x="-1190" y="310" as="targetPoint" />
          </mxGeometry>
        </mxCell>
        <mxCell id="O6iuBpLwriNrMhc-ZvkL-1" value="" style="endArrow=classic;html=1;rounded=0;entryX=0.5;entryY=0;entryDx=0;entryDy=0;" edge="1" parent="WIyWlLk6GJQsqaUBKTNV-1" target="FxKuk05yWhdDs-jEQxmQ-2">
          <mxGeometry width="50" height="50" relative="1" as="geometry">
            <mxPoint x="-1020" y="310" as="sourcePoint" />
            <mxPoint x="-850" y="410" as="targetPoint" />
          </mxGeometry>
        </mxCell>
        <mxCell id="O6iuBpLwriNrMhc-ZvkL-6" value="" style="edgeStyle=orthogonalEdgeStyle;rounded=0;orthogonalLoop=1;jettySize=auto;html=1;entryX=0.5;entryY=0;entryDx=0;entryDy=0;" edge="1" parent="WIyWlLk6GJQsqaUBKTNV-1" target="pU9Nuj2Ota8fJku8dNai-21">
          <mxGeometry relative="1" as="geometry">
            <mxPoint x="-1020" y="390" as="sourcePoint" />
            <mxPoint x="-1019.9999999999998" y="410" as="targetPoint" />
          </mxGeometry>
        </mxCell>
        <mxCell id="O6iuBpLwriNrMhc-ZvkL-9" value="" style="endArrow=none;html=1;rounded=0;entryX=0.5;entryY=1;entryDx=0;entryDy=0;" edge="1" parent="WIyWlLk6GJQsqaUBKTNV-1" target="pU9Nuj2Ota8fJku8dNai-10">
          <mxGeometry width="50" height="50" relative="1" as="geometry">
            <mxPoint x="414" y="320" as="sourcePoint" />
            <mxPoint x="330" y="420" as="targetPoint" />
          </mxGeometry>
        </mxCell>
        <mxCell id="O6iuBpLwriNrMhc-ZvkL-13" value="" style="endArrow=none;html=1;rounded=0;" edge="1" parent="WIyWlLk6GJQsqaUBKTNV-1">
          <mxGeometry width="50" height="50" relative="1" as="geometry">
            <mxPoint x="600" y="321" as="sourcePoint" />
            <mxPoint x="260" y="321" as="targetPoint" />
          </mxGeometry>
        </mxCell>
        <mxCell id="O6iuBpLwriNrMhc-ZvkL-14" value="" style="endArrow=none;html=1;rounded=0;" edge="1" parent="WIyWlLk6GJQsqaUBKTNV-1">
          <mxGeometry width="50" height="50" relative="1" as="geometry">
            <mxPoint x="-1180" y="570" as="sourcePoint" />
            <mxPoint x="-1020" y="570" as="targetPoint" />
          </mxGeometry>
        </mxCell>
        <mxCell id="O6iuBpLwriNrMhc-ZvkL-15" value="" style="endArrow=classic;html=1;rounded=0;entryX=0.5;entryY=0;entryDx=0;entryDy=0;" edge="1" parent="WIyWlLk6GJQsqaUBKTNV-1" target="pU9Nuj2Ota8fJku8dNai-75">
          <mxGeometry width="50" height="50" relative="1" as="geometry">
            <mxPoint x="-1180" y="570" as="sourcePoint" />
            <mxPoint x="-890" y="590" as="targetPoint" />
          </mxGeometry>
        </mxCell>
        <mxCell id="O6iuBpLwriNrMhc-ZvkL-16" value="결재 양식 수정" style="rounded=0;whiteSpace=wrap;html=1;" vertex="1" parent="WIyWlLk6GJQsqaUBKTNV-1">
          <mxGeometry x="200" y="340" width="120" height="60" as="geometry" />
        </mxCell>
        <mxCell id="O6iuBpLwriNrMhc-ZvkL-17" value="결재 양식&lt;br&gt;수정 완료" style="rounded=0;whiteSpace=wrap;html=1;" vertex="1" parent="WIyWlLk6GJQsqaUBKTNV-1">
          <mxGeometry x="200" y="420" width="120" height="60" as="geometry" />
        </mxCell>
        <mxCell id="O6iuBpLwriNrMhc-ZvkL-18" value="" style="endArrow=classic;html=1;rounded=0;exitX=0.5;exitY=1;exitDx=0;exitDy=0;entryX=0.5;entryY=0;entryDx=0;entryDy=0;" edge="1" parent="WIyWlLk6GJQsqaUBKTNV-1" source="O6iuBpLwriNrMhc-ZvkL-16" target="O6iuBpLwriNrMhc-ZvkL-17">
          <mxGeometry width="50" height="50" relative="1" as="geometry">
            <mxPoint x="290" y="650" as="sourcePoint" />
            <mxPoint x="340" y="600" as="targetPoint" />
          </mxGeometry>
        </mxCell>
        <mxCell id="O6iuBpLwriNrMhc-ZvkL-19" value="양식 작성&lt;br&gt;페이지로 전환" style="rounded=1;whiteSpace=wrap;html=1;" vertex="1" parent="WIyWlLk6GJQsqaUBKTNV-1">
          <mxGeometry x="200" y="500" width="120" height="60" as="geometry" />
        </mxCell>
        <mxCell id="O6iuBpLwriNrMhc-ZvkL-20" value="" style="endArrow=classic;html=1;rounded=0;exitX=0.5;exitY=1;exitDx=0;exitDy=0;entryX=0.5;entryY=0;entryDx=0;entryDy=0;" edge="1" parent="WIyWlLk6GJQsqaUBKTNV-1" target="O6iuBpLwriNrMhc-ZvkL-19">
          <mxGeometry width="50" height="50" relative="1" as="geometry">
            <mxPoint x="260" y="480" as="sourcePoint" />
            <mxPoint x="260" y="520" as="targetPoint" />
          </mxGeometry>
        </mxCell>
        <mxCell id="O6iuBpLwriNrMhc-ZvkL-22" value="" style="endArrow=classic;html=1;rounded=0;entryX=0.5;entryY=0;entryDx=0;entryDy=0;" edge="1" parent="WIyWlLk6GJQsqaUBKTNV-1" target="O6iuBpLwriNrMhc-ZvkL-16">
          <mxGeometry width="50" height="50" relative="1" as="geometry">
            <mxPoint x="260" y="320" as="sourcePoint" />
            <mxPoint x="130" y="410" as="targetPoint" />
          </mxGeometry>
        </mxCell>
        <mxCell id="O6iuBpLwriNrMhc-ZvkL-23" value="인쇄" style="rounded=0;whiteSpace=wrap;html=1;" vertex="1" parent="WIyWlLk6GJQsqaUBKTNV-1">
          <mxGeometry x="-1250" y="330" width="120" height="60" as="geometry" />
        </mxCell>
        <mxCell id="O6iuBpLwriNrMhc-ZvkL-24" value="" style="endArrow=classic;html=1;rounded=0;entryX=0.5;entryY=0;entryDx=0;entryDy=0;" edge="1" parent="WIyWlLk6GJQsqaUBKTNV-1" target="O6iuBpLwriNrMhc-ZvkL-23">
          <mxGeometry width="50" height="50" relative="1" as="geometry">
            <mxPoint x="-1190" y="310" as="sourcePoint" />
            <mxPoint x="-650" y="390" as="targetPoint" />
          </mxGeometry>
        </mxCell>
        <mxCell id="O6iuBpLwriNrMhc-ZvkL-25" value="검색" style="rounded=0;whiteSpace=wrap;html=1;" vertex="1" parent="WIyWlLk6GJQsqaUBKTNV-1">
          <mxGeometry x="-480" y="230" width="120" height="60" as="geometry" />
        </mxCell>
        <mxCell id="O6iuBpLwriNrMhc-ZvkL-31" value="" style="endArrow=classic;html=1;rounded=0;entryX=0.5;entryY=0;entryDx=0;entryDy=0;" edge="1" parent="WIyWlLk6GJQsqaUBKTNV-1" target="pU9Nuj2Ota8fJku8dNai-110">
          <mxGeometry width="50" height="50" relative="1" as="geometry">
            <mxPoint x="-710" y="120" as="sourcePoint" />
            <mxPoint x="-390" y="320" as="targetPoint" />
          </mxGeometry>
        </mxCell>
        <mxCell id="O6iuBpLwriNrMhc-ZvkL-33" value="임시 문서함&lt;br&gt;(전자결재)" style="rounded=0;whiteSpace=wrap;html=1;" vertex="1" parent="WIyWlLk6GJQsqaUBKTNV-1">
          <mxGeometry x="-180" y="150" width="120" height="60" as="geometry" />
        </mxCell>
        <mxCell id="O6iuBpLwriNrMhc-ZvkL-34" value="" style="endArrow=classic;html=1;rounded=0;entryX=0.5;entryY=0;entryDx=0;entryDy=0;" edge="1" parent="WIyWlLk6GJQsqaUBKTNV-1" target="O6iuBpLwriNrMhc-ZvkL-33">
          <mxGeometry width="50" height="50" relative="1" as="geometry">
            <mxPoint x="-120" y="120" as="sourcePoint" />
            <mxPoint x="200" y="320" as="targetPoint" />
          </mxGeometry>
        </mxCell>
        <mxCell id="O6iuBpLwriNrMhc-ZvkL-35" value="" style="endArrow=none;html=1;rounded=0;exitX=1;exitY=0.5;exitDx=0;exitDy=0;entryX=0;entryY=0.5;entryDx=0;entryDy=0;" edge="1" parent="WIyWlLk6GJQsqaUBKTNV-1" source="pU9Nuj2Ota8fJku8dNai-110" target="O6iuBpLwriNrMhc-ZvkL-33">
          <mxGeometry width="50" height="50" relative="1" as="geometry">
            <mxPoint x="-440" y="370" as="sourcePoint" />
            <mxPoint x="-390" y="320" as="targetPoint" />
          </mxGeometry>
        </mxCell>
        <mxCell id="O6iuBpLwriNrMhc-ZvkL-36" value="" style="endArrow=classic;html=1;rounded=0;entryX=0.5;entryY=0;entryDx=0;entryDy=0;" edge="1" parent="WIyWlLk6GJQsqaUBKTNV-1" target="O6iuBpLwriNrMhc-ZvkL-25">
          <mxGeometry width="50" height="50" relative="1" as="geometry">
            <mxPoint x="-420" y="180" as="sourcePoint" />
            <mxPoint x="-390" y="320" as="targetPoint" />
          </mxGeometry>
        </mxCell>
        <mxCell id="O6iuBpLwriNrMhc-ZvkL-37" value="" style="edgeStyle=orthogonalEdgeStyle;rounded=0;orthogonalLoop=1;jettySize=auto;html=1;" edge="1" parent="WIyWlLk6GJQsqaUBKTNV-1" target="O6iuBpLwriNrMhc-ZvkL-38">
          <mxGeometry relative="1" as="geometry">
            <mxPoint x="-120" y="210" as="sourcePoint" />
          </mxGeometry>
        </mxCell>
        <mxCell id="O6iuBpLwriNrMhc-ZvkL-38" value="임시 문서함&lt;br&gt;상세 목록 페이지" style="whiteSpace=wrap;html=1;rounded=0;" vertex="1" parent="WIyWlLk6GJQsqaUBKTNV-1">
          <mxGeometry x="-180" y="230" width="120" height="60" as="geometry" />
        </mxCell>
        <mxCell id="O6iuBpLwriNrMhc-ZvkL-39" value="결재 신청 처리" style="rounded=0;whiteSpace=wrap;html=1;" vertex="1" parent="WIyWlLk6GJQsqaUBKTNV-1">
          <mxGeometry x="-178" y="410" width="120" height="60" as="geometry" />
        </mxCell>
        <mxCell id="O6iuBpLwriNrMhc-ZvkL-40" value="결재 신청 완료" style="rounded=0;whiteSpace=wrap;html=1;" vertex="1" parent="WIyWlLk6GJQsqaUBKTNV-1">
          <mxGeometry x="-178" y="670" width="120" height="60" as="geometry" />
        </mxCell>
        <mxCell id="O6iuBpLwriNrMhc-ZvkL-41" value="결재 목록&lt;br&gt;페이지로 전환" style="rounded=1;whiteSpace=wrap;html=1;" vertex="1" parent="WIyWlLk6GJQsqaUBKTNV-1">
          <mxGeometry x="-178" y="750" width="120" height="60" as="geometry" />
        </mxCell>
        <mxCell id="O6iuBpLwriNrMhc-ZvkL-42" value="" style="endArrow=classic;html=1;rounded=0;exitX=0.5;exitY=1;exitDx=0;exitDy=0;entryX=0.5;entryY=0;entryDx=0;entryDy=0;" edge="1" parent="WIyWlLk6GJQsqaUBKTNV-1" source="O6iuBpLwriNrMhc-ZvkL-40" target="O6iuBpLwriNrMhc-ZvkL-41">
          <mxGeometry width="50" height="50" relative="1" as="geometry">
            <mxPoint x="-118" y="750" as="sourcePoint" />
            <mxPoint x="-118" y="770" as="targetPoint" />
          </mxGeometry>
        </mxCell>
        <mxCell id="O6iuBpLwriNrMhc-ZvkL-43" value="&lt;div&gt;결재 정보 입력&lt;/div&gt;" style="shape=parallelogram;perimeter=parallelogramPerimeter;whiteSpace=wrap;html=1;fixedSize=1;" vertex="1" parent="WIyWlLk6GJQsqaUBKTNV-1">
          <mxGeometry x="-178" y="320" width="120" height="60" as="geometry" />
        </mxCell>
        <mxCell id="O6iuBpLwriNrMhc-ZvkL-44" value="결재&lt;br&gt;게시판 DB" style="shape=cylinder3;whiteSpace=wrap;html=1;boundedLbl=1;backgroundOutline=1;size=15;" vertex="1" parent="WIyWlLk6GJQsqaUBKTNV-1">
          <mxGeometry x="-153" y="580" width="70" height="70" as="geometry" />
        </mxCell>
        <mxCell id="O6iuBpLwriNrMhc-ZvkL-45" value="" style="endArrow=classic;html=1;rounded=0;exitX=0.5;exitY=1;exitDx=0;exitDy=0;entryX=0.5;entryY=0;entryDx=0;entryDy=0;" edge="1" parent="WIyWlLk6GJQsqaUBKTNV-1" source="O6iuBpLwriNrMhc-ZvkL-43" target="O6iuBpLwriNrMhc-ZvkL-39">
          <mxGeometry width="50" height="50" relative="1" as="geometry">
            <mxPoint x="-116" y="380" as="sourcePoint" />
            <mxPoint x="-116" y="400" as="targetPoint" />
          </mxGeometry>
        </mxCell>
        <mxCell id="O6iuBpLwriNrMhc-ZvkL-46" value="정보를&lt;br&gt;빠짐없이,올바르게&lt;br&gt;적었나?" style="rhombus;whiteSpace=wrap;html=1;" vertex="1" parent="WIyWlLk6GJQsqaUBKTNV-1">
          <mxGeometry x="-190" y="490" width="144" height="70" as="geometry" />
        </mxCell>
        <mxCell id="O6iuBpLwriNrMhc-ZvkL-47" value="" style="endArrow=classic;html=1;rounded=0;entryX=0.5;entryY=0;entryDx=0;entryDy=0;" edge="1" parent="WIyWlLk6GJQsqaUBKTNV-1" target="O6iuBpLwriNrMhc-ZvkL-46">
          <mxGeometry width="50" height="50" relative="1" as="geometry">
            <mxPoint x="-118" y="470" as="sourcePoint" />
            <mxPoint x="-116" y="490" as="targetPoint" />
          </mxGeometry>
        </mxCell>
        <mxCell id="O6iuBpLwriNrMhc-ZvkL-48" value="" style="endArrow=classic;html=1;rounded=0;exitX=0.5;exitY=1;exitDx=0;exitDy=0;entryX=0.5;entryY=0;entryDx=0;entryDy=0;" edge="1" parent="WIyWlLk6GJQsqaUBKTNV-1" target="O6iuBpLwriNrMhc-ZvkL-43">
          <mxGeometry width="50" height="50" relative="1" as="geometry">
            <mxPoint x="-118" y="290" as="sourcePoint" />
            <mxPoint x="-116" y="320" as="targetPoint" />
          </mxGeometry>
        </mxCell>
        <mxCell id="O6iuBpLwriNrMhc-ZvkL-49" value="" style="endArrow=classic;html=1;rounded=0;exitX=0.5;exitY=1;exitDx=0;exitDy=0;entryX=0.5;entryY=0;entryDx=0;entryDy=0;entryPerimeter=0;" edge="1" parent="WIyWlLk6GJQsqaUBKTNV-1" source="O6iuBpLwriNrMhc-ZvkL-46" target="O6iuBpLwriNrMhc-ZvkL-44">
          <mxGeometry width="50" height="50" relative="1" as="geometry">
            <mxPoint x="-476" y="540" as="sourcePoint" />
            <mxPoint x="-426" y="490" as="targetPoint" />
          </mxGeometry>
        </mxCell>
        <mxCell id="O6iuBpLwriNrMhc-ZvkL-50" value="Yes" style="text;strokeColor=none;fillColor=none;align=left;verticalAlign=middle;spacingLeft=4;spacingRight=4;overflow=hidden;points=[[0,0.5],[1,0.5]];portConstraint=eastwest;rotatable=0;whiteSpace=wrap;html=1;" vertex="1" parent="WIyWlLk6GJQsqaUBKTNV-1">
          <mxGeometry x="-112" y="560" width="40" height="20" as="geometry" />
        </mxCell>
        <mxCell id="O6iuBpLwriNrMhc-ZvkL-51" value="" style="endArrow=classic;html=1;rounded=0;exitX=0.5;exitY=1;exitDx=0;exitDy=0;exitPerimeter=0;entryX=0.5;entryY=0;entryDx=0;entryDy=0;" edge="1" parent="WIyWlLk6GJQsqaUBKTNV-1" target="O6iuBpLwriNrMhc-ZvkL-40">
          <mxGeometry width="50" height="50" relative="1" as="geometry">
            <mxPoint x="-118" y="650" as="sourcePoint" />
            <mxPoint x="-428" y="500" as="targetPoint" />
          </mxGeometry>
        </mxCell>
        <mxCell id="O6iuBpLwriNrMhc-ZvkL-52" value="" style="endArrow=none;html=1;rounded=0;" edge="1" parent="WIyWlLk6GJQsqaUBKTNV-1">
          <mxGeometry width="50" height="50" relative="1" as="geometry">
            <mxPoint x="-26" y="620" as="sourcePoint" />
            <mxPoint x="-26" y="350" as="targetPoint" />
          </mxGeometry>
        </mxCell>
        <mxCell id="O6iuBpLwriNrMhc-ZvkL-53" value="" style="endArrow=classic;html=1;rounded=0;entryX=1;entryY=0.5;entryDx=0;entryDy=0;" edge="1" parent="WIyWlLk6GJQsqaUBKTNV-1" target="O6iuBpLwriNrMhc-ZvkL-43">
          <mxGeometry width="50" height="50" relative="1" as="geometry">
            <mxPoint x="-26" y="350" as="sourcePoint" />
            <mxPoint x="-236" y="460" as="targetPoint" />
          </mxGeometry>
        </mxCell>
        <mxCell id="O6iuBpLwriNrMhc-ZvkL-54" value="임시 저장" style="rounded=0;whiteSpace=wrap;html=1;" vertex="1" parent="WIyWlLk6GJQsqaUBKTNV-1">
          <mxGeometry x="-340" y="410" width="120" height="60" as="geometry" />
        </mxCell>
        <mxCell id="O6iuBpLwriNrMhc-ZvkL-55" value="" style="endArrow=none;html=1;rounded=0;entryX=0.998;entryY=0.572;entryDx=0;entryDy=0;entryPerimeter=0;" edge="1" parent="WIyWlLk6GJQsqaUBKTNV-1" target="O6iuBpLwriNrMhc-ZvkL-44">
          <mxGeometry width="50" height="50" relative="1" as="geometry">
            <mxPoint x="-28" y="620" as="sourcePoint" />
            <mxPoint x="-78" y="620" as="targetPoint" />
          </mxGeometry>
        </mxCell>
        <mxCell id="O6iuBpLwriNrMhc-ZvkL-56" value="No" style="text;strokeColor=none;fillColor=none;align=left;verticalAlign=middle;spacingLeft=4;spacingRight=4;overflow=hidden;points=[[0,0.5],[1,0.5]];portConstraint=eastwest;rotatable=0;whiteSpace=wrap;html=1;" vertex="1" parent="WIyWlLk6GJQsqaUBKTNV-1">
          <mxGeometry x="-74" y="600" width="40" height="20" as="geometry" />
        </mxCell>
        <mxCell id="O6iuBpLwriNrMhc-ZvkL-57" value="임시저장 DB" style="shape=cylinder3;whiteSpace=wrap;html=1;boundedLbl=1;backgroundOutline=1;size=15;" vertex="1" parent="WIyWlLk6GJQsqaUBKTNV-1">
          <mxGeometry x="-315" y="490" width="70" height="70" as="geometry" />
        </mxCell>
        <mxCell id="O6iuBpLwriNrMhc-ZvkL-58" value="" style="endArrow=classic;html=1;rounded=0;exitX=0.5;exitY=1;exitDx=0;exitDy=0;entryX=0.5;entryY=0;entryDx=0;entryDy=0;" edge="1" parent="WIyWlLk6GJQsqaUBKTNV-1">
          <mxGeometry width="50" height="50" relative="1" as="geometry">
            <mxPoint x="-280" y="470" as="sourcePoint" />
            <mxPoint x="-280" y="490" as="targetPoint" />
          </mxGeometry>
        </mxCell>
        <mxCell id="O6iuBpLwriNrMhc-ZvkL-59" value="임시 저장 완료" style="rounded=0;whiteSpace=wrap;html=1;" vertex="1" parent="WIyWlLk6GJQsqaUBKTNV-1">
          <mxGeometry x="-340" y="580" width="120" height="60" as="geometry" />
        </mxCell>
        <mxCell id="O6iuBpLwriNrMhc-ZvkL-60" value="" style="endArrow=classic;html=1;rounded=0;exitX=0.5;exitY=1;exitDx=0;exitDy=0;exitPerimeter=0;entryX=0.5;entryY=0;entryDx=0;entryDy=0;" edge="1" parent="WIyWlLk6GJQsqaUBKTNV-1" target="O6iuBpLwriNrMhc-ZvkL-59">
          <mxGeometry width="50" height="50" relative="1" as="geometry">
            <mxPoint x="-280" y="560" as="sourcePoint" />
            <mxPoint x="-590" y="410" as="targetPoint" />
          </mxGeometry>
        </mxCell>
        <mxCell id="O6iuBpLwriNrMhc-ZvkL-61" value="임시 저장 &lt;br&gt;목록 페이지로 전환" style="rounded=1;whiteSpace=wrap;html=1;" vertex="1" parent="WIyWlLk6GJQsqaUBKTNV-1">
          <mxGeometry x="-340" y="660" width="120" height="60" as="geometry" />
        </mxCell>
        <mxCell id="O6iuBpLwriNrMhc-ZvkL-62" value="" style="endArrow=classic;html=1;rounded=0;exitX=0.5;exitY=1;exitDx=0;exitDy=0;entryX=0.5;entryY=0;entryDx=0;entryDy=0;" edge="1" parent="WIyWlLk6GJQsqaUBKTNV-1" target="O6iuBpLwriNrMhc-ZvkL-61">
          <mxGeometry width="50" height="50" relative="1" as="geometry">
            <mxPoint x="-280" y="640" as="sourcePoint" />
            <mxPoint x="-280" y="680" as="targetPoint" />
          </mxGeometry>
        </mxCell>
        <mxCell id="O6iuBpLwriNrMhc-ZvkL-63" value="" style="endArrow=none;html=1;rounded=0;" edge="1" parent="WIyWlLk6GJQsqaUBKTNV-1">
          <mxGeometry width="50" height="50" relative="1" as="geometry">
            <mxPoint x="-280" y="390" as="sourcePoint" />
            <mxPoint x="-120" y="390" as="targetPoint" />
          </mxGeometry>
        </mxCell>
        <mxCell id="O6iuBpLwriNrMhc-ZvkL-64" value="" style="endArrow=classic;html=1;rounded=0;entryX=0.5;entryY=0;entryDx=0;entryDy=0;" edge="1" parent="WIyWlLk6GJQsqaUBKTNV-1" target="O6iuBpLwriNrMhc-ZvkL-54">
          <mxGeometry width="50" height="50" relative="1" as="geometry">
            <mxPoint x="-280" y="390" as="sourcePoint" />
            <mxPoint x="-20" y="410" as="targetPoint" />
          </mxGeometry>
        </mxCell>
      </root>
    </mxGraphModel>
  </diagram>
</mxfile>
